<?xml version="1.0" encoding="UTF-8"?>
<svg id="Layer_2" data-name="Layer 2" xmlns="http://www.w3.org/2000/svg" xmlns:xlink="http://www.w3.org/1999/xlink" viewBox="0 0 10.66 190.08">
  <defs>
    <style>
      .cls-1 {
        fill: url(#linear-gradient);
        stroke-width: 0px;
      }
    </style>
    <linearGradient id="linear-gradient" x1="5.33" y1=".66" x2="5.33" y2="420.2" gradientUnits="userSpaceOnUse">
      <stop offset="0" stop-color="#ee4396"/>
      <stop offset=".5" stop-color="#ffda9b"/>
      <stop offset="1" stop-color="#8dcfe5"/>
    </linearGradient>
  </defs>
  <g id="Layer_1-2" data-name="Layer 1">
    <path class="cls-1" d="m.14,183.95h1.4v4.42h3.07v-3.45h1.39v3.45h4.56v1.71H.14v-6.13Zm10.53-8.14c0,.97-.23,1.86-.67,2.68-.46.81-1.1,1.46-1.91,1.93-.82.47-1.74.71-2.76.71s-1.94-.24-2.74-.71c-.81-.48-1.44-1.12-1.89-1.93-.46-.82-.69-1.71-.69-2.68s.23-1.88.69-2.69c.45-.82,1.08-1.46,1.89-1.93.81-.47,1.72-.71,2.74-.71s1.94.24,2.76.71c.81.47,1.44,1.12,1.91,1.93.45.81.67,1.71.67,2.69Zm-1.48,0c0-.69-.16-1.31-.47-1.85-.32-.54-.77-.96-1.35-1.26-.59-.31-1.27-.46-2.04-.46s-1.45.15-2.03.46c-.58.3-1.02.72-1.34,1.26-.31.54-.47,1.15-.47,1.85s.16,1.3.47,1.85c.31.54.76.96,1.34,1.27.58.3,1.26.45,2.03.45s1.45-.15,2.04-.45c.58-.31,1.03-.74,1.35-1.27.31-.54.47-1.16.47-1.85Zm0-10.52v-3.52h1.38v5.24H.14v-1.71h9.05Zm0-8.46v-3.52h1.38v5.24H.14v-1.71h9.05Zm1.48-11.51c0,.97-.23,1.87-.67,2.69-.46.81-1.1,1.45-1.91,1.93-.82.47-1.74.71-2.76.71s-1.94-.24-2.74-.71c-.81-.48-1.44-1.12-1.89-1.93-.46-.82-.69-1.72-.69-2.69s.23-1.88.69-2.68c.45-.82,1.08-1.46,1.89-1.93.81-.47,1.72-.71,2.74-.71s1.94.24,2.76.71c.81.47,1.44,1.12,1.91,1.93.45.81.67,1.71.67,2.68Zm-1.48,0c0-.69-.16-1.3-.47-1.85-.32-.54-.77-.96-1.35-1.26-.59-.31-1.27-.46-2.04-.46s-1.45.15-2.03.46c-.58.3-1.02.72-1.34,1.26-.31.54-.47,1.16-.47,1.85s.16,1.31.47,1.85c.31.54.76.97,1.34,1.28.58.3,1.26.45,2.03.45s1.45-.15,2.04-.45c.58-.31,1.03-.74,1.35-1.28.31-.54.47-1.15.47-1.85ZM.14,122.93l10.43,3.09v1.93l-7.89,2.19,7.89,2.32v1.92s-10.43,2.96-10.43,2.96v-1.82l8.49-2.16-8.49-2.34v-1.92l8.45-2.18L.14,124.76v-1.83Zm10.53-13.66c0,.97-.23,1.86-.67,2.68-.46.81-1.1,1.46-1.91,1.93-.82.47-1.74.71-2.76.71s-1.94-.24-2.74-.71c-.81-.48-1.44-1.12-1.89-1.93-.46-.82-.69-1.72-.69-2.68s.23-1.88.69-2.69c.45-.82,1.08-1.46,1.89-1.93.81-.47,1.72-.71,2.74-.71s1.94.24,2.76.71c.81.47,1.44,1.11,1.91,1.93.45.81.67,1.71.67,2.69Zm-1.48,0c0-.69-.16-1.31-.47-1.85-.32-.54-.77-.96-1.35-1.26-.59-.31-1.27-.47-2.04-.47s-1.45.16-2.03.47c-.58.3-1.02.72-1.34,1.26-.31.54-.47,1.15-.47,1.85s.16,1.3.47,1.84c.31.54.76.97,1.34,1.28.58.3,1.26.45,2.03.45s1.45-.15,2.04-.45c.58-.31,1.03-.74,1.35-1.28.31-.54.47-1.15.47-1.84ZM.14,98.77h6.65c.79,0,1.38-.2,1.78-.61.4-.42.6-1,.6-1.74s-.2-1.33-.6-1.74c-.4-.42-.99-.63-1.78-.63H.14v-1.71h6.61c.85,0,1.57.19,2.16.56.59.37,1.03.87,1.32,1.49.29.62.43,1.31.43,2.06s-.15,1.43-.43,2.05c-.29.61-.73,1.1-1.32,1.46-.59.36-1.31.54-2.16.54H.14v-1.71Zm10.43-15.88l-4.17,2.4v1.31h4.17v1.71H.14v-3.6c0-.8.14-1.47.42-2.03.28-.56.65-.97,1.12-1.25.47-.28.99-.42,1.57-.42.68,0,1.3.2,1.86.6.55.39.92,1,1.12,1.82l4.32-2.58v2.04Zm-5.53,3.71v-1.89c0-.64-.16-1.12-.48-1.44-.32-.33-.75-.5-1.29-.5s-.96.16-1.26.48c-.31.32-.47.81-.47,1.46v1.89h3.49Zm5.64-18.7c0,.7-.12,1.33-.36,1.89-.25.56-.6,1-1.05,1.32-.45.32-.98.48-1.57.48v-1.83c.45-.04.82-.21,1.11-.52.29-.32.44-.76.44-1.34s-.14-1.05-.42-1.38c-.29-.33-.66-.5-1.11-.5-.35,0-.64.11-.86.32-.22.2-.39.46-.51.76-.12.3-.25.72-.39,1.26-.18.68-.36,1.24-.54,1.67-.19.42-.48.78-.87,1.08-.39.3-.91.45-1.56.45-.6,0-1.12-.15-1.57-.45-.45-.3-.8-.72-1.03-1.26s-.36-1.17-.36-1.88c0-1.01.26-1.83.77-2.47.5-.65,1.19-1.01,2.07-1.08v1.89c-.38.03-.7.21-.97.54-.27.33-.4.76-.4,1.31,0,.49.12.89.38,1.2.25.31.61.47,1.08.47.32,0,.59-.1.8-.29.2-.2.36-.45.48-.75.12-.3.25-.71.39-1.23.19-.69.38-1.25.57-1.68.19-.44.48-.81.89-1.11.39-.31.91-.47,1.57-.47.53,0,1.03.15,1.5.44.47.28.85.69,1.14,1.24.28.54.42,1.18.42,1.92Zm0-12.17c0,.97-.23,1.87-.67,2.69-.46.81-1.1,1.46-1.91,1.94-.82.47-1.74.7-2.76.7s-1.94-.24-2.74-.7c-.81-.48-1.44-1.12-1.89-1.94-.46-.82-.69-1.72-.69-2.69s.23-1.88.69-2.68c.45-.82,1.08-1.47,1.89-1.94.81-.47,1.72-.7,2.74-.7s1.94.23,2.76.7c.81.47,1.44,1.12,1.91,1.94.45.81.67,1.7.67,2.68Zm-1.48,0c0-.69-.16-1.3-.47-1.84-.32-.54-.77-.96-1.35-1.26-.59-.31-1.27-.47-2.04-.47s-1.45.16-2.03.47c-.58.3-1.02.72-1.34,1.26-.31.54-.47,1.15-.47,1.84s.16,1.31.47,1.85c.31.54.76.97,1.34,1.28.58.3,1.26.45,2.03.45s1.45-.15,2.04-.45c.58-.31,1.03-.74,1.35-1.28.31-.54.47-1.15.47-1.85Zm-3.86-8.24c-1.02,0-1.94-.24-2.74-.7-.81-.48-1.44-1.12-1.89-1.94-.46-.82-.69-1.72-.69-2.69,0-1.11.28-2.09.83-2.95.54-.87,1.31-1.5,2.31-1.89v2.05c-.55.27-.96.65-1.23,1.12-.27.48-.41,1.04-.41,1.67,0,.69.16,1.31.47,1.85.31.54.76.97,1.34,1.28.58.3,1.26.45,2.03.45s1.44-.15,2.02-.45c.58-.31,1.03-.74,1.35-1.28.31-.54.47-1.15.47-1.85,0-.63-.14-1.18-.4-1.67-.27-.48-.68-.85-1.23-1.12v-2.05c1,.39,1.77,1.02,2.31,1.89.54.86.81,1.84.81,2.95,0,.98-.23,1.88-.67,2.69-.46.81-1.1,1.45-1.91,1.94-.81.47-1.73.7-2.74.7ZM.14,31.8h10.43v1.71H.14v-1.71Zm8.3-10.33v4.36l2.13.75v1.78L.12,24.64v-1.98l10.44-3.74v1.8l-2.13.75Zm-1.4.48l-4.85,1.69,4.85,1.71v-3.41Zm2.15-8.16v-3.53h1.38v5.23H.14v-1.71h9.05Zm1.48-10.19c0,.7-.12,1.33-.36,1.89-.25.56-.6,1-1.05,1.32-.45.32-.98.48-1.57.48v-1.83c.45-.04.82-.22,1.11-.53.29-.32.44-.77.44-1.34s-.14-1.05-.42-1.38c-.29-.33-.66-.49-1.11-.49-.35,0-.64.11-.86.31-.22.2-.39.46-.51.77-.12.3-.25.72-.39,1.26-.18.68-.36,1.24-.54,1.67-.19.42-.48.78-.87,1.08-.39.3-.91.45-1.56.45-.6,0-1.12-.15-1.57-.45-.45-.3-.8-.72-1.03-1.26s-.36-1.16-.36-1.88c0-1.01.26-1.83.77-2.47C1.27.55,1.96.19,2.84.12v1.89c-.38.03-.7.21-.97.54-.27.33-.4.76-.4,1.31,0,.49.12.89.38,1.2s.61.47,1.08.47c.32,0,.59-.1.8-.29.2-.2.36-.45.48-.75.12-.3.25-.71.39-1.23.19-.69.38-1.25.57-1.68.19-.44.48-.81.89-1.11.39-.31.91-.47,1.57-.47.53,0,1.03.15,1.5.43.47.28.85.7,1.14,1.25.28.54.42,1.18.42,1.92Z"/>
  </g>
</svg>