<?xml version="1.0" encoding="UTF-8"?><svg id="Layer_2" xmlns="http://www.w3.org/2000/svg" viewBox="0 0 24.96 19"><defs><style>.cls-1{fill:#fbfbf0;stroke-width:0px;}</style></defs><g id="Layer_2-2"><g id="Layer_1-2"><path class="cls-1" d="m21.2,1.61l-.03-.03C19.54.83,17.83.3,16.07,0h-.05s-.03.02-.03.03c-.23.42-.44.86-.63,1.3-1.89-.29-3.82-.29-5.72,0-.19-.44-.41-.88-.64-1.3,0,0-.02-.02-.03-.03s-.03,0-.05,0c-1.76.3-3.47.83-5.09,1.57,0,0-.03.02-.03.03C.56,6.43-.33,11.14.1,15.79c0,.01,0,.02,0,.03,0,0,0,.02.02.03,1.89,1.39,4,2.46,6.24,3.15h.05s.03-.02.04-.03c.48-.65.91-1.35,1.28-2.07v-.06s-.01-.02-.02-.03c0,0-.02-.01-.03-.02-.67-.26-1.33-.57-1.95-.93-.01,0-.02-.02-.03-.03,0-.01-.01-.02-.01-.04v-.04s.01-.02.02-.03c.13-.1.26-.2.39-.3.01,0,.02-.01.04-.02h.04c4.09,1.86,8.52,1.86,12.56,0h.04s.03,0,.04.02c.13.1.26.21.39.3.01,0,.02.02.02.03v.04s0,.03-.01.04c0,.01-.02.02-.03.03-.62.36-1.28.67-1.95.93-.01,0-.02.01-.03.02,0,0-.01.02-.02.03v.06c.37.72.8,1.41,1.28,2.07,0,.01.02.02.04.03h.05c2.25-.69,4.36-1.75,6.25-3.15,0,0,.02-.02.02-.03,0,0,0-.02.01-.03.52-5.38-.87-10.05-3.7-14.19h.05Zm-12.84,11.36c-1.23,0-2.25-1.13-2.25-2.51s1-2.51,2.25-2.51,2.27,1.14,2.25,2.51c0,1.39-1,2.51-2.25,2.51Zm8.31,0c-1.23,0-2.25-1.13-2.25-2.51s1-2.51,2.25-2.51,2.27,1.14,2.25,2.51c0,1.39-.99,2.51-2.25,2.51Z"/></g></g></svg>