<?xml version="1.0" encoding="UTF-8"?>
<svg id="Layer_2" data-name="Layer 2" xmlns="http://www.w3.org/2000/svg" xmlns:xlink="http://www.w3.org/1999/xlink" viewBox="0 0 25 25">
  <defs>
    <style>
      .cls-1 {
        fill: url(#linear-gradient);
        stroke-width: 0px;
      }
    </style>
    <linearGradient id="linear-gradient" x1="12.5" y1="-360.27" x2="12.5" y2="60.29" gradientUnits="userSpaceOnUse">
      <stop offset="0" stop-color="#ee4396"/>
      <stop offset=".5" stop-color="#ffda9b"/>
      <stop offset="1" stop-color="#8dcfe5"/>
    </linearGradient>
  </defs>
  <g id="Layer_1-2" data-name="Layer 1">
    <path class="cls-1" d="m12.5,6.09c-3.55,0-6.41,2.86-6.41,6.41s2.86,6.41,6.41,6.41,6.41-2.86,6.41-6.41-2.86-6.41-6.41-6.41Zm0,10.58c-2.29,0-4.17-1.87-4.17-4.17s1.87-4.17,4.17-4.17,4.17,1.87,4.17,4.17-1.87,4.17-4.17,4.17Zm8.17-10.84c0,.83-.67,1.49-1.49,1.49s-1.49-.67-1.49-1.49.67-1.49,1.49-1.49,1.49.67,1.49,1.49Zm4.24,1.52c-.09-2-.55-3.78-2.02-5.24-1.46-1.46-3.23-1.92-5.24-2.02C15.59-.03,9.41-.03,7.34.09c-2,.1-3.77.55-5.24,2.01C.64,3.56.19,5.34.09,7.34-.03,9.4-.03,15.59.09,17.65c.09,2,.55,3.78,2.02,5.24,1.47,1.46,3.23,1.92,5.24,2.02,2.06.12,8.25.12,10.31,0,2-.1,3.78-.55,5.24-2.02,1.46-1.46,1.92-3.24,2.02-5.24.12-2.07.12-8.25,0-10.31Zm-2.67,12.52c-.44,1.09-1.28,1.94-2.38,2.38-1.65.65-5.55.5-7.37.5s-5.73.15-7.37-.5c-1.09-.44-1.94-1.28-2.38-2.38-.65-1.64-.5-5.55-.5-7.37s-.15-5.73.5-7.37c.44-1.09,1.28-1.94,2.38-2.38,1.65-.65,5.55-.5,7.37-.5s5.73-.14,7.37.5c1.09.43,1.94,1.28,2.38,2.38.65,1.65.5,5.55.5,7.37s.15,5.73-.5,7.37Z"/>
  </g>
</svg>