<?xml version="1.0" encoding="UTF-8"?>
<svg id="Layer_2" data-name="Layer 2" xmlns="http://www.w3.org/2000/svg" xmlns:xlink="http://www.w3.org/1999/xlink" viewBox="0 0 25 25">
  <defs>
    <style>
      .cls-1 {
        fill: url(#linear-gradient);
        stroke-width: 0px;
      }
    </style>
    <linearGradient id="linear-gradient" x1="12.5" y1="-319.52" x2="12.5" y2="104.82" gradientUnits="userSpaceOnUse">
      <stop offset="0" stop-color="#ee4396"/>
      <stop offset=".5" stop-color="#ffda9b"/>
      <stop offset="1" stop-color="#8dcfe5"/>
    </linearGradient>
  </defs>
  <g id="Layer_1-2" data-name="Layer 1">
    <path class="cls-1" d="m23.21,0H1.78C.8,0,0,.81,0,1.8v21.4c0,.99.8,1.8,1.78,1.8h21.43c.98,0,1.79-.81,1.79-1.8V1.8c0-.99-.8-1.8-1.79-1.8ZM7.56,21.43h-3.71v-11.93h3.71v11.93h0Zm-1.85-13.56c-1.19,0-2.15-.96-2.15-2.15s.96-2.15,2.15-2.15,2.15.97,2.15,2.15-.96,2.15-2.15,2.15Zm15.74,13.56h-3.71v-5.8c0-1.38-.03-3.16-1.93-3.16s-2.23,1.51-2.23,3.06v5.9h-3.71v-11.93h3.55v1.63h.05c.5-.94,1.71-1.92,3.51-1.92,3.75,0,4.45,2.47,4.45,5.69v6.54Z"/>
  </g>
</svg>