<?xml version="1.0" encoding="UTF-8"?><svg id="Layer_2" xmlns="http://www.w3.org/2000/svg" viewBox="0 0 24 24"><defs><style>.cls-1{fill:#fbfbf0;stroke-width:0px;}</style></defs><g id="Layer_1-2"><path id="reddit" class="cls-1" d="m16.47,13.33c0,.74-.6,1.33-1.33,1.33s-1.33-.6-1.33-1.33c0-.74.6-1.33,1.33-1.33.74,0,1.33.6,1.33,1.33Zm-5.87,0c0-.74-.6-1.33-1.33-1.33-.74,0-1.33.6-1.33,1.33s.6,1.33,1.33,1.33h0c.74,0,1.33-.6,1.33-1.33Zm4.28,3.03c-.78.56-1.72.83-2.68.78-.95.05-1.9-.22-2.68-.78-.13-.13-.35-.13-.49,0s-.13.35,0,.49h0c.91.68,2.03,1.03,3.17.98,1.14.05,2.26-.3,3.17-.98.14-.13.14-.35,0-.49-.13-.14-.35-.14-.49,0h0ZM24,3v18c0,1.66-1.34,3-3,3H3c-1.66,0-3-1.34-3-3V3C0,1.34,1.34,0,3,0h18c1.66,0,3,1.34,3,3Zm-3.27,9c0-1.03-.83-1.87-1.86-1.87-.48,0-.95.19-1.3.52-1.47-1-3.21-1.55-4.99-1.58l.85-4,2.78.59c.03.74.66,1.31,1.4,1.27.74-.03,1.31-.66,1.27-1.4-.03-.74-.66-1.31-1.4-1.27-.49.02-.92.31-1.14.74l-3.1-.66c-.18-.04-.36.08-.4.26l-.95,4.46c-1.81.02-3.57.57-5.07,1.58-.74-.71-1.92-.69-2.64.05-.71.74-.69,1.92.05,2.64.15.15.33.27.53.36-.03.19-.04.38-.04.56,0,2.87,3.34,5.2,7.47,5.2s7.47-2.33,7.47-5.2c0-.19-.01-.38-.04-.56.67-.3,1.11-.97,1.11-1.71Z"/></g></svg>