<?xml version="1.0" encoding="UTF-8"?><svg id="Layer_2" xmlns="http://www.w3.org/2000/svg" viewBox="0 0 25.55 18"><defs><style>.cls-1{fill:#fbfbf0;stroke-width:0px;}</style></defs><g id="Layer_1-2"><path id="youtube" class="cls-1" d="m25.02,2.81c-.29-1.11-1.15-1.97-2.26-2.27-1.99-.54-9.98-.54-9.98-.54,0,0-7.99,0-9.98.54C1.69.84.83,1.7.53,2.81.17,4.85-.01,6.92,0,9c-.01,2.08.17,4.15.53,6.19.29,1.11,1.15,1.97,2.26,2.27,1.99.54,9.98.54,9.98.54,0,0,7.99,0,9.98-.54,1.1-.3,1.96-1.17,2.26-2.27.37-2.04.55-4.11.53-6.19.01-2.08-.17-4.15-.53-6.19Zm-14.85,9.99v-7.6l6.68,3.8-6.68,3.8Z"/></g></svg>